<?xml version="1.0" encoding="iso-8859-1"?>
<!-- Generator: Adobe Illustrator 19.0.0, SVG Export Plug-In . SVG Version: 6.00 Build 0)  -->
<svg version="1.1" id="Capa_1" xmlns="http://www.w3.org/2000/svg" xmlns:xlink="http://www.w3.org/1999/xlink" x="0px" y="0px"
	 viewBox="0 0 512 512" style="enable-background:new 0 0 512 512;" xml:space="preserve">
<path style="fill:#F576A2;" d="M236.69,492.01H33.421C14.963,492.01,0,477.046,0,458.589V265.323c0-18.458,14.963-33.42,33.42-33.42
	h203.269c18.458,0,33.42,14.963,33.42,33.42v193.265C270.111,477.046,255.148,492.01,236.69,492.01z"/>
<path style="fill:#FFA1DC;" d="M135.056,231.903H33.45C14.977,231.903,0,246.88,0,265.353v193.205
	c0,18.475,14.977,33.45,33.45,33.45h101.605V231.903H135.056z"/>
<circle style="fill:#F2FFFF;" cx="87.288" cy="296.253" r="19.748"/>
<circle style="fill:#D6EBEB;" cx="182.816" cy="296.253" r="19.748"/>
<circle style="fill:#F2FFFF;" cx="87.288" cy="361.951" r="19.748"/>
<circle style="fill:#D6EBEB;" cx="182.816" cy="361.951" r="19.748"/>
<circle style="fill:#F2FFFF;" cx="87.288" cy="427.659" r="19.748"/>
<circle style="fill:#D6EBEB;" cx="182.816" cy="427.659" r="19.748"/>
<path style="fill:#6FD9D9;" d="M233.487,345.241L89.754,201.508c-13.052-13.052-13.052-34.212,0-47.264L226.413,17.585
	c13.052-13.052,34.212-13.052,47.264,0L417.41,161.318c13.052,13.052,13.052,34.212,0,47.264l-136.66,136.66
	C267.699,358.293,246.538,358.293,233.487,345.241z"/>
<path style="fill:#AFF9FA;" d="M226.392,17.606L89.775,154.223c-13.063,13.063-13.063,34.243,0,47.306l143.692,143.691
	c5.63,5.631,12.77,8.828,20.117,9.605V8.001C243.884,6.975,233.825,10.173,226.392,17.606z"/>
<g>
	<circle style="fill:#D6EBEB;" cx="312.363" cy="123.397" r="20.659"/>
	<circle style="fill:#D6EBEB;" cx="253.584" cy="182.185" r="20.659"/>
</g>
<g>
	<path style="fill:#F2FFFF;" d="M253.589,202.839c-5.29,0.002-10.58-2.015-14.616-6.051c-8.068-8.068-8.068-21.147,0-29.215
		c4.033-4.033,9.318-6.05,14.604-6.051L253.589,202.839z"/>
	<circle style="fill:#F2FFFF;" cx="194.805" cy="240.964" r="20.659"/>
	<circle style="fill:#F2FFFF;" cx="312.363" cy="240.964" r="20.659"/>
	<circle style="fill:#F2FFFF;" cx="194.805" cy="123.397" r="20.659"/>
</g>
<path style="fill:#BA406F;" d="M318.289,494.415L174.555,350.681c-13.052-13.052-13.052-34.212,0-47.264l136.659-136.659
	c13.052-13.052,34.212-13.052,47.264,0l143.734,143.734c13.052,13.052,13.052,34.212,0,47.264L365.552,494.415
	C352.501,507.467,331.34,507.467,318.289,494.415z"/>
<path style="fill:#EB4F96;" d="M311.194,166.78L174.577,303.396c-13.063,13.063-13.063,34.243,0,47.306l143.692,143.691
	c5.63,5.631,12.77,8.828,20.117,9.605V157.175C328.686,156.149,318.627,159.347,311.194,166.78z"/>
<circle style="fill:#D6EBEB;" cx="332.172" cy="262.973" r="21.581"/>
<path style="fill:#F2FFFF;" d="M338.384,283.645c-7.358,2.203-15.659,0.399-21.471-5.413c-8.428-8.428-8.428-22.092,0-30.52
	c5.812-5.812,14.114-7.616,21.472-5.412L338.384,283.645z"/>
<circle style="fill:#D6EBEB;" cx="406" cy="336.792" r="21.581"/>
<circle style="fill:#F2FFFF;" cx="270.764" cy="324.372" r="21.581"/>
<circle style="fill:#D6EBEB;" cx="344.592" cy="398.2" r="21.581"/>
<path style="fill:#F2FFFF;" d="M338.382,418.874c-3.312-0.992-6.433-2.796-9.049-5.412c-8.428-8.428-8.428-22.092,0-30.52
	c2.617-2.617,5.738-4.421,9.051-5.413L338.382,418.874z"/>
<g>
</g>
<g>
</g>
<g>
</g>
<g>
</g>
<g>
</g>
<g>
</g>
<g>
</g>
<g>
</g>
<g>
</g>
<g>
</g>
<g>
</g>
<g>
</g>
<g>
</g>
<g>
</g>
<g>
</g>
</svg>
